<svg width="96" height="54" viewBox="0 0 96 54" fill="none" xmlns="http://www.w3.org/2000/svg">
<g clip-path="url(#clip0_324_1240)">
<path d="M67.1088 39.598C63.986 39.5699 61.1918 39.8204 58.4805 41.0718C57.7697 41.354 57.1203 41.8779 56.5904 42.5969C56.0605 43.3164 55.6666 44.2078 55.444 45.1923C55.1752 46.2857 54.9197 47.3844 54.6176 48.4365C54.324 49.5264 53.8378 50.4943 53.204 51.2515C52.5706 52.0082 51.8101 52.5289 50.9938 52.7654C48.8995 53.4736 46.7153 53.4893 44.6154 52.8119C43.7093 52.5626 42.8669 51.979 42.1765 51.1216C41.4862 50.2643 40.9727 49.164 40.6895 47.9359C40.5078 47.2982 40.3518 46.6464 40.2218 45.9847C39.6942 42.9765 38.2307 41.4241 36.1665 40.673C32.6886 39.408 29.1477 39.3984 25.6101 39.695C17.4365 40.3764 9.41214 42.4759 1.4044 44.7241C0.322542 45.0251 -0.0590963 44.6403 0.00727512 43.0831C0.0744527 40.8281 0.668954 38.6661 1.69975 36.9282C2.09212 36.247 2.65367 35.7969 3.27276 35.6675C9.75728 34.2029 16.2584 32.9793 22.8291 32.5993C28.2517 32.2841 33.6311 32.5251 38.9209 34.4161C39.3955 34.5876 39.8601 34.8008 40.3313 34.9955C41.142 35.3215 41.8881 35.9036 42.5119 36.6969C43.1356 37.4901 43.6206 38.4733 43.9287 39.5699C44.2019 40.6221 44.5416 41.6382 44.9443 42.6058C46.1987 45.2616 49.3644 45.2384 50.5494 42.5176C50.8939 41.6718 51.1892 40.7884 51.4318 39.8758C52.202 37.2063 53.5791 35.5841 55.5671 34.7776C58.4544 33.6433 61.4204 32.9426 64.4145 32.6873C71.6224 32.0106 78.7705 32.9747 85.9022 34.3512C87.9761 34.7498 90.0403 35.2319 92.1146 35.6351C92.4732 35.7052 92.8177 35.8771 93.127 36.1401C93.4363 36.4031 93.7038 36.7518 93.9132 37.1646C94.8118 38.814 95.3469 40.7932 95.4528 42.8607C95.5559 44.6175 95.184 45.0251 93.9826 44.7145C86.6588 42.6663 79.3149 40.7796 71.8611 39.8898C70.2826 39.6621 68.6957 39.5643 67.1088 39.598Z" fill="#24D66B"/>
<path d="M53.7516 31.6642C55.3332 30.4184 57.0036 29.4091 58.7344 28.6528C63.7807 26.2727 68.9797 24.912 74.2518 24.0235C77.7729 23.4343 81.3077 23.121 84.8489 22.8545C86.0414 22.761 86.6925 23.453 87.1742 24.7623C87.5477 25.7641 87.7735 26.8614 87.8385 27.9888C87.8887 28.8211 87.7458 29.1859 87.0944 29.1391C85.52 29.0175 83.9387 28.9801 82.3607 28.91C73.9514 28.5282 65.5344 29.2168 57.2129 30.9675C56.1536 31.2013 55.0404 31.407 53.7516 31.6642Z" fill="#E72F2F"/>
<path d="M41.3165 31.6642C37.3704 30.8867 33.4277 30.1761 29.4682 29.68C24.6482 29.0569 19.8078 28.8149 14.9691 28.955C12.6322 29.0266 10.2952 29.1172 7.95827 29.246C7.36067 29.2794 7.14365 28.9741 7.24382 28.1585C7.28156 27.4937 7.36889 26.8365 7.50423 26.1981C8.27208 23.5223 8.62262 22.7305 10.6758 22.8593C17.7267 23.3363 24.7209 24.3427 31.5915 26.7323C34.8265 27.858 38.0047 29.2317 40.9892 31.3876C41.0963 31.483 41.2062 31.5784 41.3165 31.6642Z" fill="#E72F2F"/>
<path d="M40.9154 28.8585C39.5051 28.0325 38.1584 27.2293 36.8017 26.4535C30.5207 22.8756 23.9683 20.6485 17.2584 19.2019C16.0491 18.9417 14.8498 18.6223 13.6405 18.3576C13.2485 18.2754 13.1548 18.0336 13.3055 17.5589C13.425 17.0521 13.5636 16.554 13.7209 16.0666C14.5651 13.73 15.3422 13.2418 17.1881 13.8898C23.8242 16.2218 30.1857 19.5076 36.125 24.2127C37.5798 25.3715 38.9856 26.6407 40.3357 28.0142C40.5977 28.1911 40.8034 28.4909 40.9154 28.8585Z" fill="#24AFDB"/>
<path d="M54.5538 28.8585C56.2354 26.8422 58.0878 25.1002 60.0726 23.6686C66.1096 19.0991 72.557 15.9697 79.2427 13.7053C79.4412 13.6222 79.6518 13.6051 79.8564 13.6556C80.0606 13.7061 80.2531 13.8226 80.4168 13.9952C81.2744 14.8815 81.8905 16.1251 82.1689 17.5321C82.3101 18.148 82.2359 18.4016 81.7216 18.5149C79.6566 18.9677 77.5984 19.4568 75.5398 19.9459C68.5092 21.5697 61.6699 24.4465 55.2029 28.5007C54.9774 28.6321 54.7656 28.7407 54.5538 28.8585Z" fill="#24AFDB"/>
<path d="M70.6039 14.4054C70.0391 13.4422 69.5409 12.459 68.8201 11.5366C65.8802 7.7808 61.2652 5.41394 55.3004 4.2708C47.8738 2.8484 40.7413 3.35668 34.1039 6.10003C29.6171 7.95652 26.6573 10.6539 25.1519 14.0687C25.1163 14.1503 25.073 14.2318 25.0296 14.3113C25.0219 14.3239 24.9879 14.3291 24.8749 14.373C24.8648 13.3152 25.0203 12.2595 25.3391 11.2239C26.7965 6.57488 30.8347 3.30963 37.2664 1.51591C45.4867 -0.776677 53.614 -0.514162 61.2913 2.61304C66.9275 4.90774 69.8257 8.44388 70.4707 12.8439C70.5265 13.2257 70.5606 13.6085 70.5963 13.9944C70.6039 14.1283 70.6039 14.2674 70.6039 14.4054Z" fill="#24AFDB"/>
<path d="M31.9517 19.7875C31.3436 15.4994 33.6536 11.7917 39.5871 9.89239C45.0318 8.14785 50.5875 8.16144 56.0027 9.93944C60.9864 11.5752 63.3815 14.4096 63.6134 18.1131C63.6419 18.6437 63.6218 19.1749 63.5532 19.7038C60.414 14.6166 54.5903 12.3439 46.7133 12.5918C39.6985 12.8083 34.6206 15.1563 31.9517 19.7875Z" fill="#24AFDB"/>
<path d="M39.959 23.6478C39.6595 21.3444 40.797 19.3527 43.7189 18.3325C46.4 17.3953 49.1362 17.4026 51.8029 18.3577C54.2566 19.2364 55.4363 20.759 55.5506 22.7483C55.5647 23.0333 55.5546 23.3187 55.521 23.6029C53.975 20.8702 51.5502 20.6416 47.7346 20.6416C44.2251 20.6416 41.2732 21.1601 39.959 23.6478Z" fill="#24AFDB"/>
<path d="M44.4409 29.1945C44.0671 27.1411 45.6459 25.251 47.7346 25.251C49.8233 25.251 51.4022 27.1411 51.0283 29.1945L49.4543 37.8456C49.3031 38.6761 48.5794 39.2798 47.7346 39.2798C46.8899 39.2798 46.1662 38.6761 46.015 37.8456L44.4409 29.1945Z" fill="#E72F2F"/>
</g>
<defs>
<clipPath id="clip0_324_1240">
<rect width="96" height="54" fill="white"/>
</clipPath>
</defs>
</svg>
